<?xml version="1.0" standalone="no"?>
<!DOCTYPE svg PUBLIC "-//W3C//DTD SVG 20010904//EN"
 "http://www.w3.org/TR/2001/REC-SVG-20010904/DTD/svg10.dtd">
<svg version="1.0" xmlns="http://www.w3.org/2000/svg"
 width="1920.000000pt" height="1920.000000pt" viewBox="0 0 1920.000000 1920.000000"
 preserveAspectRatio="xMidYMid meet">
<metadata>
Created by potrace 1.14, written by Peter Selinger 2001-2017
</metadata>
<g transform="translate(0.000000,1920.000000) scale(0.100000,-0.100000)"
fill="#000000" stroke="none">
<path d="M0 19040 l0 -160 800 0 800 0 0 -160 0 -160 480 0 480 0 0 -160 0
-160 480 0 480 0 0 320 0 320 160 0 160 0 0 160 0 160 -1920 0 -1920 0 0 -160z"/>
<path d="M5440 19040 l0 -160 160 0 160 0 0 -160 0 -160 1280 0 1280 0 0 -160
0 -160 320 0 320 0 0 -160 0 -160 320 0 320 0 0 -160 0 -160 160 0 160 0 0
-320 0 -320 -160 0 -160 0 0 -160 0 -160 -800 0 -800 0 0 160 0 160 -320 0
-320 0 0 160 0 160 -480 0 -480 0 0 160 0 160 -320 0 -320 0 0 160 0 160
-1120 0 -1120 0 0 -160 0 -160 -160 0 -160 0 0 -160 0 -160 -1120 0 -1120 0 0
160 0 160 -320 0 -320 0 0 160 0 160 -160 0 -160 0 0 -960 0 -960 960 0 960 0
0 -160 0 -160 480 0 480 0 0 320 0 320 160 0 160 0 0 160 0 160 640 0 640 0 0
-160 0 -160 320 0 320 0 0 -160 0 -160 1120 0 1120 0 0 -160 0 -160 160 0 160
0 0 -160 0 -160 160 0 160 0 0 -160 0 -160 160 0 160 0 0 -1440 0 -1440 -160
0 -160 0 0 -160 0 -160 -160 0 -160 0 0 -160 0 -160 -160 0 -160 0 0 -160 0
-160 -160 0 -160 0 0 -160 0 -160 -320 0 -320 0 0 -160 0 -160 -160 0 -160 0
0 -320 0 -320 -160 0 -160 0 0 -160 0 -160 -160 0 -160 0 0 -480 0 -480 -320
0 -320 0 0 -160 0 -160 -800 0 -800 0 0 -480 0 -480 -160 0 -160 0 0 -160 0
-160 -160 0 -160 0 0 160 0 160 -160 0 -160 0 0 160 0 160 -160 0 -160 0 0
160 0 160 -160 0 -160 0 0 160 0 160 -160 0 -160 0 0 480 0 480 160 0 160 0 0
160 0 160 160 0 160 0 0 160 0 160 160 0 160 0 0 160 0 160 160 0 160 0 0 160
0 160 160 0 160 0 0 160 0 160 160 0 160 0 0 160 0 160 320 0 320 0 0 -160 0
-160 1120 0 1120 0 0 480 0 480 -160 0 -160 0 0 160 0 160 -320 0 -320 0 0
160 0 160 -160 0 -160 0 0 480 0 480 960 0 960 0 0 480 0 480 -160 0 -160 0 0
160 0 160 -320 0 -320 0 0 160 0 160 -320 0 -320 0 0 160 0 160 -1280 0 -1280
0 0 -320 0 -320 -1120 0 -1120 0 0 160 0 160 -160 0 -160 0 0 -1920 0 -1920
320 0 320 0 0 960 0 960 480 0 480 0 0 160 0 160 320 0 320 0 0 160 0 160 160
0 160 0 0 160 0 160 160 0 160 0 0 -160 0 -160 160 0 160 0 0 -960 0 -960
-640 0 -640 0 0 -160 0 -160 -160 0 -160 0 0 -160 0 -160 -320 0 -320 0 0
-800 0 -800 -480 0 -480 0 0 -2240 0 -2240 1120 0 1120 0 0 -160 0 -160 -160
0 -160 0 0 -320 0 -320 -160 0 -160 0 0 -480 0 -480 160 0 160 0 0 -160 0
-160 320 0 320 0 0 160 0 160 160 0 160 0 0 160 0 160 160 0 160 0 0 160 0
160 480 0 480 0 0 -320 0 -320 160 0 160 0 0 -320 0 -320 160 0 160 0 0 -1120
0 -1120 -320 0 -320 0 0 -160 0 -160 1440 0 1440 0 0 160 0 160 320 0 320 0 0
160 0 160 160 0 160 0 0 640 0 640 -160 0 -160 0 0 160 0 160 -160 0 -160 0 0
160 0 160 -160 0 -160 0 0 160 0 160 -160 0 -160 0 0 160 0 160 -160 0 -160 0
0 160 0 160 -160 0 -160 0 0 160 0 160 -160 0 -160 0 0 160 0 160 -160 0 -160
0 0 160 0 160 -160 0 -160 0 0 160 0 160 -640 0 -640 0 0 1120 0 1120 480 0
480 0 0 160 0 160 320 0 320 0 0 160 0 160 320 0 320 0 0 -960 0 -960 160 0
160 0 0 -320 0 -320 160 0 160 0 0 -480 0 -480 160 0 160 0 0 -160 0 -160 480
0 480 0 0 960 0 960 480 0 480 0 0 -160 0 -160 160 0 160 0 0 -320 0 -320 160
0 160 0 0 -480 0 -480 160 0 160 0 0 -1120 0 -1120 160 0 160 0 0 -480 0 -480
-160 0 -160 0 0 -160 0 -160 -960 0 -960 0 0 -160 0 -160 1760 0 1760 0 0 160
0 160 160 0 160 0 0 800 0 800 480 0 480 0 0 -160 0 -160 160 0 160 0 0 -320
0 -320 160 0 160 0 0 -160 0 -160 320 0 320 0 0 160 0 160 160 0 160 0 0 960
0 960 160 0 160 0 0 160 0 160 160 0 160 0 0 1120 0 1120 160 0 160 0 0 160 0
160 160 0 160 0 0 1120 0 1120 -160 0 -160 0 0 640 0 640 960 0 960 0 0 480 0
480 -160 0 -160 0 0 160 0 160 -160 0 -160 0 0 160 0 160 -160 0 -160 0 0 160
0 160 160 0 160 0 0 160 0 160 160 0 160 0 0 160 0 160 160 0 160 0 0 160 0
160 160 0 160 0 0 160 0 160 160 0 160 0 0 -160 0 -160 160 0 160 0 0 -320 0
-320 160 0 160 0 0 -160 0 -160 320 0 320 0 0 960 0 960 -160 0 -160 0 0 320
0 320 160 0 160 0 0 1600 0 1600 -960 0 -960 0 0 -640 0 -640 160 0 160 0 0
-1120 0 -1120 -800 0 -800 0 0 160 0 160 -960 0 -960 0 0 480 0 480 160 0 160
0 0 160 0 160 160 0 160 0 0 160 0 160 160 0 160 0 0 160 0 160 160 0 160 0 0
160 0 160 160 0 160 0 0 160 0 160 160 0 160 0 0 160 0 160 160 0 160 0 0 160
0 160 320 0 320 0 0 160 0 160 160 0 160 0 0 320 0 320 160 0 160 0 0 160 0
160 640 0 640 0 0 480 0 480 -640 0 -640 0 0 -160 0 -160 -1120 0 -1120 0 0
-160 0 -160 -160 0 -160 0 0 -160 0 -160 -320 0 -320 0 0 -160 0 -160 -800 0
-800 0 0 -480 0 -480 160 0 160 0 0 -1280 0 -1280 -640 0 -640 0 0 -160 0
-160 -160 0 -160 0 0 -160 0 -160 -160 0 -160 0 0 -320 0 -320 1120 0 1120 0
0 -160 0 -160 320 0 320 0 0 -160 0 -160 640 0 640 0 0 -160 0 -160 160 0 160
0 0 -320 0 -320 160 0 160 0 0 -320 0 -320 -160 0 -160 0 0 -160 0 -160 -320
0 -320 0 0 160 0 160 -160 0 -160 0 0 160 0 160 -160 0 -160 0 0 160 0 160
-160 0 -160 0 0 160 0 160 -480 0 -480 0 0 -160 0 -160 -320 0 -320 0 0 160 0
160 -480 0 -480 0 0 160 0 160 -160 0 -160 0 0 160 0 160 -1120 0 -1120 0 0
320 0 320 160 0 160 0 0 160 0 160 160 0 160 0 0 160 0 160 480 0 480 0 0 160
0 160 160 0 160 0 0 960 0 960 160 0 160 0 0 160 0 160 160 0 160 0 0 960 0
960 320 0 320 0 0 160 0 160 320 0 320 0 0 160 0 160 160 0 160 0 0 160 0 160
-3840 0 -3840 0 0 -160z m4160 -8000 l0 -160 160 0 160 0 0 -320 0 -320 -160
0 -160 0 0 -160 0 -160 -160 0 -160 0 0 -160 0 -160 -160 0 -160 0 0 -160 0
-160 -160 0 -160 0 0 -320 0 -320 160 0 160 0 0 -160 0 -160 160 0 160 0 0
-320 0 -320 -160 0 -160 0 0 -160 0 -160 -160 0 -160 0 0 -160 0 -160 -160 0
-160 0 0 -160 0 -160 -320 0 -320 0 0 160 0 160 -160 0 -160 0 0 320 0 320
-160 0 -160 0 0 1280 0 1280 480 0 480 0 0 160 0 160 320 0 320 0 0 160 0 160
160 0 160 0 0 160 0 160 320 0 320 0 0 -160z m3200 -640 l0 -160 160 0 160 0
0 -160 0 -160 160 0 160 0 0 -160 0 -160 160 0 160 0 0 -960 0 -960 -160 0
-160 0 0 -160 0 -160 -160 0 -160 0 0 -1280 0 -1280 160 0 160 0 0 -480 0
-480 -160 0 -160 0 0 -160 0 -160 -800 0 -800 0 0 160 0 160 -160 0 -160 0 0
160 0 160 -160 0 -160 0 0 160 0 160 -160 0 -160 0 0 960 0 960 -160 0 -160 0
0 320 0 320 -160 0 -160 0 0 320 0 320 -160 0 -160 0 0 160 0 160 160 0 160 0
0 160 0 160 160 0 160 0 0 160 0 160 160 0 160 0 0 -160 0 -160 160 0 160 0 0
-160 0 -160 160 0 160 0 0 -160 0 -160 160 0 160 0 0 -160 0 -160 640 0 640 0
0 320 0 320 -160 0 -160 0 0 480 0 480 -160 0 -160 0 0 160 0 160 -480 0 -480
0 0 160 0 160 -160 0 -160 0 0 320 0 320 160 0 160 0 0 160 0 160 800 0 800 0
0 -160z"/>
<path d="M18880 10080 l0 -160 -160 0 -160 0 0 -160 0 -160 -160 0 -160 0 0
-160 0 -160 -160 0 -160 0 0 -160 0 -160 -160 0 -160 0 0 -160 0 -160 -160 0
-160 0 0 -160 0 -160 -160 0 -160 0 0 -160 0 -160 -160 0 -160 0 0 -320 0
-320 160 0 160 0 0 -640 0 -640 -160 0 -160 0 0 -160 0 -160 -320 0 -320 0 0
-480 0 -480 160 0 160 0 0 -320 0 -320 160 0 160 0 0 -160 0 -160 320 0 320 0
0 160 0 160 160 0 160 0 0 960 0 960 160 0 160 0 0 160 0 160 160 0 160 0 0
960 0 960 160 0 160 0 0 160 0 160 320 0 320 0 0 800 0 800 -160 0 -160 0 0
-160z"/>
<path d="M18240 4000 l0 -160 -160 0 -160 0 0 -640 0 -640 -960 0 -960 0 0
-160 0 -160 -160 0 -160 0 0 -480 0 -480 160 0 160 0 0 -640 0 -640 1120 0
1120 0 0 160 0 160 160 0 160 0 0 160 0 160 160 0 160 0 0 160 0 160 160 0
160 0 0 1600 0 1600 -480 0 -480 0 0 -160z"/>
<path d="M0 1600 l0 -1600 1920 0 1920 0 0 480 0 480 -160 0 -160 0 0 160 0
160 -160 0 -160 0 0 160 0 160 -160 0 -160 0 0 -160 0 -160 -160 0 -160 0 0
-160 0 -160 -160 0 -160 0 0 -160 0 -160 -160 0 -160 0 0 -160 0 -160 -320 0
-320 0 0 160 0 160 -160 0 -160 0 0 960 0 960 -160 0 -160 0 0 160 0 160 -160
0 -160 0 0 160 0 160 -160 0 -160 0 0 -1600z"/>
</g>
</svg>
